<?xml version="1.0" encoding="UTF-8"?>
<svg id="Layer_2" data-name="Layer 2" xmlns="http://www.w3.org/2000/svg" viewBox="0 0 200 200">
  <defs>
    <style>
      .cls-1 {
        fill: none;
      }

      .cls-2 {
        fill: #f7941d;
      }

      .cls-3 {
        fill: #17335b;
      }
    </style>
  </defs>
  <g id="Layer_1-2" data-name="Layer 1">
    <rect class="cls-1" width="200" height="200"/>
    <g>
      <g>
        <path class="cls-3" d="M188.91,72.72c-1.53-1.54-4.52-2.69-8.95-3.46,.21-.69,1.28-4.09,1.89-8.5,2.06-10.3,.13-21.36-14.04-27.05-9.65-4.45-24.24-6.3-47.57-.19-5.23,1.23-10.8,2.89-16.48,5.16,0,0,8.53-1.7,18.74-1.81,10.94,.18,23.21,2.36,29.84,8.78,3.79,4.2,5.53,10.29,3.69,19-1.07,3.57-2.92,7.56-5.67,12.03-8.75,11.36-33.19,40.15-67.66,56.81-10.4,4.72-20.81,8.19-30.69,10.38-13.58,2.65-28.15,2.92-43.5-.41,0,0,3.96,9.7,20.99,12.31-.4,4.91,.49,8.61,2.68,11.03,2.3,2.54,6.15,3.73,11.52,3.57h112.91c.93,.03,1.81,.02,2.65,0h5.16c10.11-.47,12.49-7.26,12.49-7.26l7.03-41.77h-36.38l-15.06,12.32h34.65l-1.88,10.13-1.78,8.78c-.62,2.28-2.29,2.83-3.24,2.95H50.18c1-.14,2.02-.29,3.07-.47,.96-.16,1.95-.34,2.97-.54,35.55-6.06,89.85-32.18,115.32-70.66h3.01c.53,0,.97,.17,1.33,.59,.12,.35,.18,.66,.18,.96l-4.66,24.42,14.51,.04,5.31-25.01c.59-5.32,.4-9.16-2.31-12.15Z"/>
        <path class="cls-2" d="M47.08,133.79c12.6-1.34,34.97-12.89,34.97-12.89H48.57l4-35.51c0-.29,.21-.59,.62-.94,.35-.41,.8-.59,1.33-.59h76.5c1.3-1.55,8.16-12.4,9.4-14.94H55.23c-5.32-.22-9.43,1.09-12.32,3.81-3.02,2.78-4.82,6.82-5.41,12.14l-5.76,50.79c.47-.12,.89-.18,1.24-.18,4.73-.23,9.42-.8,14.1-1.69Z"/>
      </g>
      <g>
        <path class="cls-1" d="M181.85,60.76c-.18,1.28-.39,2.46-.61,3.53,.29-1.19,.5-2.37,.61-3.53Z"/>
        <path class="cls-2" d="M52.08,155.53h-1.9c1-.14,2.02-.29,3.07-.47,.96-.16,1.95-.34,2.97-.54,35.55-6.06,89.85-32.18,115.32-70.66,0,0,7.36-9.91,9.7-19.57,.22-1.07,.44-2.25,.61-3.53,2.06-10.3,.13-21.36-14.04-27.05-9.65-4.45-24.24-6.3-47.57-.19-5.23,1.23-10.8,2.89-16.48,5.16,0,0,8.53-1.7,18.74-1.81,10.94,.18,23.21,2.36,29.84,8.78,3.79,4.2,5.53,10.29,3.69,19-1.07,3.57-2.92,7.56-5.67,12.03-8.75,11.36-33.19,40.15-67.66,56.81-10.4,4.72-20.81,8.19-30.69,10.38-13.58,2.65-28.15,2.92-43.5-.41,0,0,3.85,9.39,20.18,12.17,4.85,.66,12.91,1.2,23.38-.1Z"/>
      </g>
    </g>
  </g>
</svg>